HIERARCHY
ROOT Hips
{
	OFFSET 0.000000 0.000000 0.000000
	CHANNELS 6 Xposition Yposition Zposition Zrotation Yrotation Xrotation 
	JOINT LowerBack
	{
		OFFSET 0.000000 0.000000 0.000000
		CHANNELS 3 Zrotation Yrotation Xrotation
		JOINT Spine
		{
			OFFSET 0.028270 2.035590 -0.193380
			CHANNELS 3 Zrotation Yrotation Xrotation
			JOINT Spine1
			{
				OFFSET 0.056720 2.048850 -0.042750
				CHANNELS 3 Zrotation Yrotation Xrotation
				JOINT Neck
				{
					OFFSET 0.000000 0.000000 0.000000
					CHANNELS 3 Zrotation Yrotation Xrotation
					JOINT Neck1
					{
						OFFSET -0.054170 1.746240 0.172020
						CHANNELS 3 Zrotation Yrotation Xrotation
						JOINT Head
						{
							OFFSET 0.104070 1.761360 -0.123970
							CHANNELS 3 Zrotation Yrotation Xrotation
							End Site
							{
								OFFSET 0.000000 0.000000 0.000000
							}
						}
					}
				}
				JOINT LeftShoulder
				{
					OFFSET 0.000000 0.000000 0.000000
					CHANNELS 3 Zrotation Yrotation Xrotation
					JOINT LeftArm
					{
						OFFSET 3.362410 1.200890 -0.311210
						CHANNELS 3 Zrotation Yrotation Xrotation
						JOINT LeftForeArm
						{
							OFFSET 4.983000 -0.000000 -0.000000
							CHANNELS 3 Zrotation Yrotation Xrotation
							JOINT LeftHand
							{
								OFFSET 3.483560 -0.000000 -0.000000
								CHANNELS 3 Zrotation Yrotation Xrotation
								JOINT LeftFingerBase
								{
									OFFSET 0.000000 0.000000 0.000000
									CHANNELS 3 Zrotation Yrotation Xrotation
									JOINT LeftHandIndex1
									{
										OFFSET 0.715260 -0.000000 -0.000000
										CHANNELS 3 Zrotation Yrotation Xrotation
										End Site
										{
											OFFSET 0.000000 0.000000 0.000000
										}
									}
								}
								JOINT LThumb
								{
									OFFSET 0.000000 0.000000 0.000000
									CHANNELS 3 Zrotation Yrotation Xrotation
									End Site
									{
										OFFSET 0.000000 0.000000 0.000000
									}
								}
							}
						}
					}
				}
				JOINT RightShoulder
				{
					OFFSET 0.000000 0.000000 0.000000
					CHANNELS 3 Zrotation Yrotation Xrotation
					JOINT RightArm
					{
						OFFSET -3.136600 1.374050 -0.404650
						CHANNELS 3 Zrotation Yrotation Xrotation
						JOINT RightForeArm
						{
							OFFSET -5.241900 -0.000000 -0.000000
							CHANNELS 3 Zrotation Yrotation Xrotation
							JOINT RightHand
							{
								OFFSET -3.444170 -0.000000 -0.000000
								CHANNELS 3 Zrotation Yrotation Xrotation
								JOINT RightFingerBase
								{
									OFFSET 0.000000 0.000000 0.000000
									CHANNELS 3 Zrotation Yrotation Xrotation
									JOINT RightHandIndex1
									{
										OFFSET -0.622530 -0.000000 -0.000000
										CHANNELS 3 Zrotation Yrotation Xrotation
										End Site
										{
											OFFSET 0.000000 0.000000 0.000000
										}
									}
								}
								JOINT RThumb
								{
									OFFSET 0.000000 0.000000 0.000000
									CHANNELS 3 Zrotation Yrotation Xrotation
									End Site
									{
										OFFSET 0.000000 0.000000 0.000000
									}
								}
							}
						}
					}
				}
			}
		}
	}
}
}
MOTION
Frames: 15
Frame Time: 0.008333
-1.567825 16.509557 -1.297615 38.597320 76.442715 55.189229 0.917036 -4.360544 -8.317036 0.170514 -4.652735 -4.079121 -5.201014 -4.661235 1.306482 4.733777 -16.611683 -8.572798 -3.242825 -0.240901 -0.205706 0.000000 0.000000 0.000000 3.165690 5.966749 0.546945 -50.594625 -13.355118 29.666697 -178.781663 -74.024896 -179.990359 -0.483744 0.212148 0.003856 -0.071098 0.472955 0.000000 0.000000 0.000000 0.000000 0.000000 0.000000 0.000000 8.380129 -12.654521 0.348025 52.856798 5.962578 22.045644 179.069719 81.088791 -179.945886 15.189496 -4.393302 -0.577718 -0.256431 -0.138026 -0.000000 0.000000 0.000000 0.000000 0.000000 0.000000 0.000000 
-1.391680 16.434843 -1.207460 36.884605 76.002721 53.571789 1.114160 -4.270117 -8.585813 0.146884 -4.599991 -4.140636 -5.493817 -4.596515 1.232076 5.176638 -16.193684 -8.449653 -3.400420 -0.255762 -0.169744 0.000000 0.000000 0.000000 2.824581 6.187014 0.576570 -50.645029 -13.286682 28.703674 -178.747765 -74.235442 -179.990922 -0.377221 0.227747 0.003738 -0.080875 0.473755 0.000000 0.000000 0.000000 0.000000 0.000000 0.000000 0.000000 9.182554 -12.058529 0.144371 53.975837 5.271448 19.128641 179.102017 81.418116 -179.945534 14.179663 -3.545859 -0.427562 -0.235162 -0.167810 -0.000000 0.000000 0.000000 0.000000 0.000000 0.000000 0.000000 
-1.224152 16.371254 -1.113996 35.353309 75.649195 52.094714 1.300800 -4.224836 -8.772300 0.123350 -4.589232 -4.189017 -5.793062 -4.575789 1.149776 5.668534 -15.768914 -8.313734 -3.553383 -0.270194 -0.130353 0.000000 0.000000 0.000000 2.546598 6.374897 0.584097 -50.993067 -13.085695 27.579657 -178.743675 -74.681710 -179.992296 -0.161191 0.204946 0.003548 -0.092247 0.475254 0.000000 0.000000 0.000000 0.000000 0.000000 0.000000 0.000000 9.988453 -11.498375 -0.077146 55.534640 4.682107 15.925339 179.162428 82.066749 -179.946191 12.954301 -2.478867 -0.262857 -0.208985 -0.202211 -0.000000 0.000000 0.000000 0.000000 0.000000 0.000000 0.000000 
-1.065137 16.319874 -1.016935 34.076438 75.380047 50.835611 1.450533 -4.234194 -8.891824 0.098487 -4.627036 -4.225120 -6.085359 -4.606770 1.069220 6.196620 -15.360787 -8.173450 -3.697843 -0.283759 -0.089744 0.000000 0.000000 0.000000 2.337879 6.531092 0.564016 -51.660457 -12.739766 26.283901 -178.773360 -75.361572 -179.994432 0.162615 0.124843 0.002776 -0.104343 0.477754 0.000000 0.000000 0.000000 0.000000 0.000000 0.000000 0.000000 10.785666 -11.014973 -0.312482 57.527610 4.260850 12.481945 179.246259 83.004642 -179.948000 11.593036 -1.256001 -0.104835 -0.180432 -0.238572 -0.000000 0.000000 0.000000 0.000000 0.000000 0.000000 0.000000 
-0.914446 16.281083 -0.916015 33.123389 75.187002 49.867809 1.534518 -4.304212 -8.959420 0.069723 -4.716380 -4.250814 -6.357455 -4.693400 0.994119 6.748838 -14.987979 -8.032633 -3.832099 -0.296293 -0.048847 0.000000 0.000000 0.000000 2.209928 6.638221 0.511266 -52.662378 -12.218784 24.792795 -178.838587 -76.249844 -179.997274 0.586923 -0.023697 0.000704 -0.115935 0.481220 0.000000 0.000000 0.000000 0.000000 0.000000 0.000000 0.000000 11.570018 -10.638644 -0.557363 59.911264 4.048902 8.869471 179.346502 84.168342 -179.951116 10.131353 0.043487 0.028978 -0.151305 -0.274389 0.000000 0.000000 0.000000 0.000000 0.000000 0.000000 0.000000 
-0.771564 16.254663 -0.811383 32.517962 75.059930 49.220597 1.536629 -4.435252 -8.986043 0.036176 -4.855999 -4.263647 -6.597576 -4.834343 0.941159 7.321339 -14.693645 -7.911544 -3.953927 -0.307409 -0.013354 0.000000 0.000000 0.000000 2.159657 6.731722 0.423884 -53.995386 -11.577567 23.101988 -178.937318 -77.333045 179.999193 1.107521 -0.241766 -0.003780 -0.126524 0.485363 0.000000 0.000000 0.000000 0.000000 0.000000 0.000000 0.000000 12.356978 -10.421154 -0.812447 62.584247 4.111842 5.218999 179.455973 85.482998 -179.955982 8.512988 1.342724 0.125267 -0.121556 -0.307842 0.000000 0.000000 0.000000 0.000000 0.000000 0.000000 0.000000 
-0.635962 16.240005 -0.703210 32.278384 74.982718 48.915734 1.441108 -4.623565 -8.979493 -0.004591 -5.040698 -4.265343 -6.798140 -5.024414 0.907189 7.907501 -14.488108 -7.811088 -4.064654 -0.317273 0.016527 0.000000 0.000000 0.000000 2.191663 6.790920 0.302011 -55.645001 -10.799998 21.184156 -179.065224 -78.556061 179.994947 1.720406 -0.517755 -0.012091 -0.135306 0.489496 0.000000 0.000000 0.000000 0.000000 0.000000 0.000000 0.000000 13.156777 -10.371303 -1.075927 65.426247 4.426528 1.671941 179.566811 86.850041 -179.963349 6.608004 2.572749 0.171325 -0.089927 -0.338022 0.000000 0.000000 0.000000 0.000000 0.000000 0.000000 0.000000 
-0.506859 16.236254 -0.592237 32.355708 74.936204 48.909423 1.252415 -4.858960 -8.943010 -0.052020 -5.260964 -4.255808 -6.954186 -5.253446 0.893479 8.501237 -14.383905 -7.738445 -4.164153 -0.325850 0.038741 0.000000 0.000000 0.000000 2.295594 6.824064 0.149366 -57.578715 -9.915975 19.029344 -179.214968 -79.863114 179.989840 2.433795 -0.830803 -0.025444 -0.142349 0.492885 0.000000 0.000000 0.000000 0.000000 0.000000 0.000000 0.000000 13.975028 -10.496405 -1.346673 68.297270 4.955489 -1.597627 179.672910 88.182386 -179.974426 4.212888 3.687212 0.152160 -0.053857 -0.364733 0.000000 0.000000 0.000000 0.000000 0.000000 0.000000 0.000000 
-0.383352 16.242410 -0.479390 32.654320 74.894816 49.114921 0.985810 -5.126495 -8.878928 -0.104362 -5.503888 -4.233971 -7.064630 -5.507357 0.905056 9.096829 -14.382173 -7.703922 -4.250797 -0.332926 0.050245 0.000000 0.000000 0.000000 2.445662 6.870008 -0.026149 -59.740506 -9.000004 16.660558 -179.377067 -81.205365 179.983667 3.271036 -1.151726 -0.044741 -0.148696 0.494816 -0.000000 0.000000 0.000000 0.000000 0.000000 0.000000 0.000000 14.809182 -10.787850 -1.622560 71.060089 5.635445 -4.412825 179.770250 89.410010 -179.990655 1.106589 4.653020 0.050571 -0.010439 -0.387792 0.000000 0.000000 0.000000 0.000000 0.000000 0.000000 0.000000 
-0.264609 16.257454 -0.365713 33.042646 74.827935 49.410174 0.663995 -5.407630 -8.789894 -0.158706 -5.753753 -4.201106 -7.129274 -5.769507 0.939173 9.680166 -14.460119 -7.707660 -4.321412 -0.338260 0.050867 0.000000 0.000000 0.000000 2.611247 6.946478 -0.215058 -62.061680 -8.093544 14.111059 -179.541937 -82.519410 179.976162 4.266396 -1.450192 -0.070579 -0.155570 0.494726 -0.000000 0.000000 0.000000 0.000000 0.000000 0.000000 0.000000 15.629763 -11.209215 -1.893797 73.608949 6.371206 -6.632971 -0.143010 89.511619 -0.013106 -2.865983 5.435928 -0.146937 0.042312 -0.406386 0.000000 0.000000 0.000000 0.000000 0.000000 0.000000 0.000000 
-0.149826 16.280410 -0.252202 33.356949 74.700676 49.643784 0.315144 -5.681531 -8.682068 -0.210787 -5.993097 -4.159777 -7.147307 -6.021688 0.991908 10.231004 -14.590438 -7.746536 -4.370718 -0.341464 0.041408 0.000000 0.000000 0.000000 2.755163 7.061985 -0.407377 -64.460385 -7.221062 11.431616 -179.700586 -83.738005 179.967096 5.460133 -1.698070 -0.103059 -0.164309 0.492253 -0.000000 0.000000 0.000000 0.000000 0.000000 0.000000 0.000000 16.387376 -11.716983 -2.144000 75.872059 7.080167 -8.156867 -0.067045 88.587582 -0.041568 -7.714003 5.983566 -0.436267 0.104325 -0.418645 0.000000 0.000000 0.000000 0.000000 0.000000 0.000000 0.000000 
-0.038366 16.310413 -0.139742 33.423504 74.476870 49.656088 -0.032177 -5.926486 -8.563834 -0.256274 -6.203566 -4.112787 -7.119299 -6.244814 1.060734 10.731255 -14.738924 -7.815916 -4.393362 -0.342139 0.023021 0.000000 0.000000 0.000000 2.839768 7.239106 -0.591562 -66.849723 -6.420138 8.710000 -179.845404 -84.816839 179.956365 6.888474 -1.875338 -0.141368 -0.176396 0.487327 -0.000000 0.000000 0.000000 0.000000 0.000000 0.000000 0.000000 17.032459 -12.255181 -2.356610 77.796455 7.697798 -8.934130 -0.002334 87.800175 -0.073836 -13.263497 6.225482 -0.782021 0.172712 -0.422121 0.000000 0.000000 0.000000 0.000000 0.000000 0.000000 0.000000 
0.070228 16.346677 -0.028926 33.092431 74.119561 49.312339 -0.354265 -6.122341 -8.446744 -0.291620 -6.367686 -4.064727 -7.046118 -6.421028 1.138435 11.163934 -14.877298 -7.905686 -4.384999 -0.340045 -0.001488 0.000000 0.000000 0.000000 2.837919 7.477332 -0.756907 -69.145656 -5.691866 6.038187 -179.971007 -85.718624 179.944099 8.566398 -1.970250 -0.183194 -0.192671 0.479996 -0.000000 0.000000 0.000000 0.000000 0.000000 0.000000 0.000000 17.516815 -12.769259 -2.517572 79.350310 8.190314 -8.955729 0.049553 87.103007 -0.105882 -19.166539 6.093487 -1.111701 0.242017 -0.414995 0.000000 0.000000 0.000000 0.000000 0.000000 0.000000 0.000000 
0.176135 16.388616 0.079927 32.263857 73.594818 48.524442 -0.633988 -6.252248 -8.339956 -0.315189 -6.470421 -4.020428 -6.932405 -6.535073 1.214111 11.520185 -14.970437 -8.001130 -4.344451 -0.335245 -0.028105 0.000000 0.000000 0.000000 2.738539 7.777977 -0.892256 -71.275135 -5.033086 3.521394 179.925593 -86.435211 179.930712 10.476715 -1.978566 -0.224626 -0.213362 0.470401 -0.000000 0.000000 0.000000 0.000000 0.000000 0.000000 0.000000 17.810149 -13.193374 -2.622222 80.507610 8.537302 -8.255823 0.086477 86.450413 -0.133434 -24.995941 5.548294 -1.332401 0.306134 -0.397241 0.000000 0.000000 0.000000 0.000000 0.000000 0.000000 0.000000 
0.279385 16.435699 0.186949 30.922367 72.872210 47.287351 -0.863540 -6.305539 -8.252083 -0.327053 -6.501850 -3.984331 -6.783080 -6.576979 1.276634 11.797191 -15.017737 -8.090954 -4.272672 -0.327993 -0.053558 0.000000 0.000000 0.000000 2.543104 8.112906 -0.991062 -73.175214 -4.402162 1.237057 179.845347 -86.960186 179.916907 12.561121 -1.896940 -0.259660 -0.237619 0.458570 -0.000000 0.000000 0.000000 0.000000 0.000000 0.000000 0.000000 17.901459 -13.500373 -2.673157 81.257271 8.772084 -6.861514 0.107545 85.776160 -0.153653 -30.325911 4.595918 -1.359319 0.360481 -0.370848 -0.000000 0.000000 0.000000 0.000000 0.000000 0.000000 0.000000 
